<svg xmlns="http://www.w3.org/2000/svg" width="40" height="33.254" viewBox="0 0 40 33.254">
  <g id="twitter" transform="translate(-19.164 -56.284)">
    <path id="path2" d="M59.164,60.222a16.147,16.147,0,0,1-4.712,1.321A8.386,8.386,0,0,0,58.059,56.9a16.163,16.163,0,0,1-5.211,2.036,8.118,8.118,0,0,0-5.99-2.649,8.3,8.3,0,0,0-8.206,8.4,8.761,8.761,0,0,0,.211,1.91A23.136,23.136,0,0,1,21.949,57.82a8.538,8.538,0,0,0-1.11,4.22,8.448,8.448,0,0,0,3.65,6.988,8.048,8.048,0,0,1-3.717-1.051v.108a8.353,8.353,0,0,0,6.583,8.231,8.15,8.15,0,0,1-3.707.144,8.237,8.237,0,0,0,7.667,5.828,16.276,16.276,0,0,1-12.152,3.478,22.834,22.834,0,0,0,12.578,3.772c15.1,0,23.351-12.79,23.351-23.883,0-.36-.009-.724-.025-1.085a16.9,16.9,0,0,0,4.092-4.343Z" transform="translate(0)" fill="#fff"/>
  </g>
</svg>